<svg width="48" height="48" viewBox="0 0 48 48" fill="none" xmlns="http://www.w3.org/2000/svg">
<path d="M37.614 13.214C37.9783 12.8368 38.1799 12.3316 38.1753 11.8072C38.1708 11.2828 37.9604 10.7811 37.5896 10.4103C37.2188 10.0395 36.7172 9.82918 36.1928 9.82462C35.6684 9.82006 35.1632 10.0217 34.786 10.386L24 21.172L13.214 10.386C13.0295 10.1949 12.8088 10.0426 12.5648 9.93776C12.3208 9.83295 12.0583 9.77777 11.7928 9.77547C11.5272 9.77316 11.2639 9.82376 11.0181 9.92432C10.7723 10.0249 10.549 10.1734 10.3612 10.3612C10.1734 10.549 10.0249 10.7723 9.92432 11.0181C9.82376 11.2639 9.77316 11.5272 9.77547 11.7928C9.77777 12.0583 9.83295 12.3208 9.93776 12.5648C10.0426 12.8088 10.1949 13.0295 10.386 13.214L21.172 24L10.386 34.786C10.1949 34.9705 10.0426 35.1912 9.93776 35.4352C9.83295 35.6792 9.77777 35.9416 9.77547 36.2072C9.77316 36.4727 9.82376 36.7361 9.92432 36.9819C10.0249 37.2277 10.1734 37.451 10.3612 37.6388C10.549 37.8265 10.7723 37.975 11.0181 38.0756C11.2639 38.1762 11.5272 38.2268 11.7928 38.2245C12.0583 38.2222 12.3208 38.167 12.5648 38.0622C12.8088 37.9574 13.0295 37.805 13.214 37.614L24 26.828L34.786 37.614C35.1632 37.9783 35.6684 38.1799 36.1928 38.1753C36.7172 38.1708 37.2188 37.9604 37.5896 37.5896C37.9604 37.2188 38.1708 36.7172 38.1753 36.1928C38.1799 35.6684 37.9783 35.1632 37.614 34.786L26.828 24L37.614 13.214Z" fill="#514F4D"/>
</svg>
