<svg width="32" height="32" viewBox="0 0 32 32" fill="none" xmlns="http://www.w3.org/2000/svg">
<path d="M13.5 29.5C13.2348 29.5 12.9804 29.3946 12.7929 29.2071C12.6053 29.0196 12.5 28.7652 12.5 28.5V18.885L3.22999 8.69C2.86508 8.28788 2.62473 7.78848 2.53811 7.25242C2.4515 6.71636 2.52234 6.16668 2.74204 5.6701C2.96175 5.17351 3.32087 4.75138 3.77581 4.45492C4.23076 4.15846 4.76198 4.00043 5.30499 4H26.695C27.238 4.00043 27.7692 4.15846 28.2242 4.45492C28.6791 4.75138 29.0382 5.17351 29.2579 5.6701C29.4776 6.16668 29.5485 6.71636 29.4619 7.25242C29.3753 7.78848 29.1349 8.28788 28.77 8.69L19.5 18.885V24.5C19.4999 24.6498 19.4662 24.7977 19.4012 24.9327C19.3363 25.0677 19.2419 25.1864 19.125 25.28L14.125 29.28C13.9477 29.4222 13.7273 29.4998 13.5 29.5ZM5.30499 6C5.14938 6.00039 4.99722 6.04587 4.86692 6.13094C4.73662 6.21601 4.63377 6.33702 4.57082 6.47933C4.50787 6.62163 4.48751 6.77914 4.51221 6.93277C4.53691 7.08641 4.60561 7.2296 4.70999 7.345L14.24 17.845C14.4033 18.0245 14.4957 18.2574 14.5 18.5V26.42L17.5 24V18.5C17.4994 18.2504 17.5921 18.0097 17.76 17.825L27.29 7.325C27.3882 7.20908 27.4515 7.06775 27.4728 6.91734C27.494 6.76693 27.4723 6.61357 27.41 6.475C27.3478 6.33643 27.2476 6.21829 27.1211 6.13424C26.9946 6.05018 26.8468 6.00364 26.695 6H5.30499Z" fill="#514F4D"/>
</svg>
