<svg width="32" height="32" viewBox="0 0 32 32" fill="none" xmlns="http://www.w3.org/2000/svg">
<path fill-rule="evenodd" clip-rule="evenodd" d="M22.1427 2.66667C22.3166 2.66642 22.4889 2.7005 22.6496 2.76695C22.8104 2.8334 22.9564 2.93091 23.0794 3.05391C23.2024 3.1769 23.2999 3.32296 23.3664 3.4837C23.4328 3.64445 23.4669 3.81673 23.4667 3.99067V10.6883C23.4664 10.9251 23.4035 11.1576 23.2845 11.3624C23.1655 11.5671 22.9945 11.7367 22.7888 11.8541L20.2341 13.3139C18.9296 12.624 17.4758 12.2644 16 12.2667C14.5279 12.2645 13.0776 12.6223 11.7755 13.3091L9.2288 11.8477C9.02681 11.7317 8.85906 11.5644 8.7425 11.3627C8.62595 11.161 8.56474 10.9321 8.56507 10.6992V4.00933C8.56556 3.65339 8.70718 3.31216 8.95887 3.06047C9.21056 2.80878 9.55179 2.66716 9.90773 2.66667H22.1427ZM11.2 5.6C11.2 5.45855 11.2562 5.32289 11.3562 5.22288C11.4562 5.12286 11.5919 5.06667 11.7333 5.06667H20.2667C20.4081 5.06667 20.5438 5.12286 20.6438 5.22288C20.7438 5.32289 20.8 5.45855 20.8 5.6C20.8 5.74145 20.7438 5.8771 20.6438 5.97712C20.5438 6.07714 20.4081 6.13333 20.2667 6.13333H11.7333C11.5919 6.13333 11.4562 6.07714 11.3562 5.97712C11.2562 5.8771 11.2 5.74145 11.2 5.6ZM24 21.3333C24 25.7517 20.4184 29.3333 16 29.3333C11.5816 29.3333 8 25.7517 8 21.3333C8 16.9149 11.5816 13.3333 16 13.3333C20.4184 13.3333 24 16.9149 24 21.3333ZM15.4928 16.7611C15.6525 16.2699 16.3475 16.2699 16.5072 16.7611L17.2573 19.0696C17.2921 19.1767 17.36 19.2701 17.4511 19.3363C17.5422 19.4025 17.6519 19.4381 17.7645 19.4381H20.1917C20.7083 19.4381 20.9232 20.0992 20.5053 20.4029L18.5416 21.8296C18.4505 21.8958 18.3826 21.9891 18.3478 22.0962C18.313 22.2034 18.3129 22.3187 18.3477 22.4259L19.0979 24.7341C19.2576 25.2256 18.6952 25.6341 18.2771 25.3304L16.3136 23.9037C16.2225 23.8375 16.1127 23.8018 16 23.8018C15.8873 23.8018 15.7775 23.8375 15.6864 23.9037L13.7229 25.3304C13.3048 25.6344 12.7424 25.2256 12.9021 24.7341L13.6523 22.4259C13.6871 22.3187 13.687 22.2034 13.6522 22.0962C13.6174 21.9891 13.5495 21.8958 13.4584 21.8296L11.4949 20.4029C11.0768 20.0989 11.2917 19.4381 11.8083 19.4381H14.2355C14.3481 19.4381 14.4578 19.4025 14.5489 19.3363C14.64 19.2701 14.7079 19.1767 14.7427 19.0696L15.4928 16.7611Z" fill="white"/>
</svg>
