<svg width="32" height="32" viewBox="0 0 32 32" fill="none" xmlns="http://www.w3.org/2000/svg">
<path d="M17.0713 5.29286C17.4618 4.90241 18.0949 4.90236 18.4854 5.29286L25.5566 12.3641L18.4854 19.4345C18.0948 19.825 17.4618 19.825 17.0713 19.4345C16.6809 19.0439 16.6808 18.4109 17.0713 18.0204L21.5059 13.5858H12V13.6132C9.7501 13.8619 8.0001 15.7696 8 18.0858C8.0002 20.4019 9.75024 22.3077 12 22.5565V22.5858H15C15.5523 22.5858 16 23.0335 16 23.5858C15.9999 24.138 15.5522 24.5858 15 24.5858H12V24.5643C8.64399 24.309 6.0002 21.5072 6 18.0858C6.0001 14.6643 8.64391 11.8617 12 11.6063V11.5858H21.9492L17.0713 6.70692C16.6808 6.31639 16.6808 5.68338 17.0713 5.29286Z" fill="#514F4D"/>
</svg>
