<svg width="32" height="32" viewBox="0 0 32 32" fill="none" xmlns="http://www.w3.org/2000/svg">
<path d="M14.4854 5.29286C14.0948 4.90241 13.4618 4.90236 13.0713 5.29286L6 12.3641L13.0713 19.4345C13.4618 19.825 14.0948 19.825 14.4854 19.4345C14.8758 19.0439 14.8758 18.4109 14.4854 18.0204L10.0508 13.5858H19.5566V13.6132C21.8065 13.8619 23.5565 15.7696 23.5566 18.0858C23.5564 20.4019 21.8064 22.3077 19.5566 22.5565V22.5858H16.5566C16.0044 22.5858 15.5566 23.0335 15.5566 23.5858C15.5567 24.138 16.0044 24.5858 16.5566 24.5858H19.5566V24.5643C22.9127 24.309 25.5564 21.5072 25.5566 18.0858C25.5565 14.6643 22.9127 11.8617 19.5566 11.6063V11.5858H9.60742L14.4854 6.70692C14.8759 6.31639 14.8759 5.68338 14.4854 5.29286Z" fill="#514F4D"/>
</svg>
