<svg width="32" height="32" viewBox="0 0 32 32" fill="none" xmlns="http://www.w3.org/2000/svg">
<path d="M28.9466 27.0533L25.1733 23.2933C27.2189 20.7662 28.2167 17.5505 27.9612 14.3093C27.7056 11.0681 26.216 8.04858 23.7997 5.87331C21.3833 3.69804 18.2243 2.53291 14.9742 2.61818C11.7241 2.70345 8.63055 4.03262 6.33157 6.33161C4.03258 8.63059 2.70341 11.7241 2.61814 14.9742C2.53287 18.2244 3.698 21.3833 5.87327 23.7997C8.04854 26.2161 11.0681 27.7056 14.3093 27.9612C17.5505 28.2168 20.7662 27.2189 23.2933 25.1733L27.0533 28.9467C27.1772 29.0716 27.3247 29.1708 27.4872 29.2385C27.6497 29.3062 27.8239 29.3411 28 29.3411C28.176 29.3411 28.3503 29.3062 28.5127 29.2385C28.6752 29.1708 28.8227 29.0716 28.9466 28.9467C29.0716 28.8227 29.1708 28.6752 29.2385 28.5128C29.3062 28.3503 29.341 28.176 29.341 28C29.341 27.824 29.3062 27.6497 29.2385 27.4872C29.1708 27.3248 29.0716 27.1773 28.9466 27.0533ZM5.33329 15.3333C5.33329 13.3555 5.91978 11.4221 7.0186 9.77763C8.11741 8.13314 9.6792 6.85141 11.5065 6.09454C13.3337 5.33766 15.3444 5.13963 17.2842 5.52548C19.224 5.91133 21.0058 6.86374 22.4044 8.26227C23.8029 9.66079 24.7553 11.4426 25.1411 13.3824C25.527 15.3222 25.329 17.3329 24.5721 19.1602C23.8152 20.9874 22.5335 22.5492 20.889 23.648C19.2445 24.7468 17.3111 25.3333 15.3333 25.3333C12.6811 25.3333 10.1376 24.2798 8.26222 22.4044C6.38686 20.529 5.33329 17.9855 5.33329 15.3333Z" fill="#514F4D"/>
</svg>
