<svg width="42" height="42" viewBox="0 0 42 42" fill="none" xmlns="http://www.w3.org/2000/svg">
<path d="M40.4202 37.5802L34.7602 31.9402C37.8285 28.1495 39.3254 23.326 38.942 18.4642C38.5586 13.6024 36.3243 9.07305 32.6997 5.81014C29.0752 2.54724 24.3367 0.799547 19.4615 0.927455C14.5863 1.05536 9.94607 3.04912 6.49759 6.49759C3.04912 9.94607 1.05536 14.5863 0.927455 19.4615C0.799547 24.3367 2.54724 29.0752 5.81014 32.6997C9.07305 36.3243 13.6024 38.5586 18.4642 38.942C23.326 39.3254 28.1495 37.8285 31.9402 34.7602L37.5802 40.4202C37.7661 40.6076 37.9873 40.7564 38.231 40.858C38.4748 40.9595 38.7362 41.0118 39.0002 41.0118C39.2642 41.0118 39.5256 40.9595 39.7693 40.858C40.0131 40.7564 40.2343 40.6076 40.4202 40.4202C40.6076 40.2343 40.7564 40.0131 40.858 39.7693C40.9595 39.5256 41.0118 39.2642 41.0118 39.0002C41.0118 38.7362 40.9595 38.4748 40.858 38.231C40.7564 37.9873 40.6076 37.7661 40.4202 37.5802ZM5.00018 20.0002C5.00018 17.0335 5.87992 14.1334 7.52814 11.6666C9.17636 9.19989 11.519 7.2773 14.2599 6.14199C17.0008 5.00667 20.0168 4.70962 22.9265 5.2884C25.8363 5.86718 28.509 7.29579 30.6068 9.39358C32.7046 11.4914 34.1332 14.1641 34.712 17.0738C35.2907 19.9835 34.9937 22.9995 33.8584 25.7404C32.7231 28.4813 30.8005 30.824 28.3337 32.4722C25.867 34.1205 22.9669 35.0002 20.0002 35.0002C16.0219 35.0002 12.2066 33.4198 9.39358 30.6068C6.58053 27.7937 5.00018 23.9784 5.00018 20.0002Z" fill="white"/>
</svg>
