<svg width="64" height="65" viewBox="0 0 64 65" fill="none" xmlns="http://www.w3.org/2000/svg">
<g clip-path="url(#clip0_2002_1555)">
<path d="M40.9876 43.0641C40.9062 43.3324 40.7299 43.5612 40.4924 43.7065C40.2548 43.8519 39.9726 43.9037 39.6996 43.8521C39.4341 43.7698 39.2079 43.5916 39.0641 43.3515C38.9203 43.1113 38.8691 42.8261 38.9201 42.5501L40.208 37.2967V26.3331C40.2236 26.1559 40.1827 25.9782 40.0912 25.8261C39.9997 25.6741 39.8625 25.5556 39.6996 25.488C39.563 25.4334 39.4172 25.4063 39.2703 25.4081C39.1271 25.406 38.9849 25.4332 38.8523 25.488C38.695 25.5513 38.5608 25.6619 38.4678 25.8049C38.3748 25.9479 38.3276 26.1164 38.3327 26.2875V27.5094C38.3327 27.7957 38.2202 28.0702 38.02 28.2726C37.8197 28.475 37.5482 28.5887 37.2651 28.5887C36.9819 28.5887 36.7104 28.475 36.5101 28.2726C36.3099 28.0702 36.1974 27.7957 36.1974 27.5094V24.7114C36.2104 24.5331 36.1671 24.3552 36.0737 24.2034C35.9803 24.0515 35.8417 23.9335 35.6778 23.8663C35.5412 23.8117 35.3953 23.7846 35.2485 23.7864C35.1054 23.786 34.9635 23.8132 34.8305 23.8663C34.6743 23.93 34.5415 24.0411 34.4504 24.1843C34.3594 24.3275 34.3145 24.4957 34.3221 24.6658V27.5323C34.3057 27.8135 34.187 28.0787 33.9889 28.2769C33.7908 28.4751 33.5272 28.5922 33.2488 28.6058C33.1089 28.6073 32.9702 28.5806 32.8406 28.5272C32.7111 28.4738 32.5934 28.3948 32.4945 28.2948C32.3956 28.1948 32.3174 28.0758 32.2646 27.9449C32.2118 27.814 32.1853 27.6737 32.1869 27.5323V24.3003C32.197 24.1181 32.1515 23.9371 32.0565 23.7819C31.9615 23.6266 31.8217 23.5046 31.6559 23.4324C31.3875 23.3243 31.0883 23.3243 30.8199 23.4324C30.6595 23.4958 30.5225 23.6077 30.4274 23.7528C30.3324 23.898 30.284 24.0692 30.2889 24.2432V27.5323C30.3042 27.6818 30.2883 27.8329 30.2422 27.9758C30.1961 28.1187 30.1208 28.2502 30.0212 28.3618C29.9216 28.4734 29.8 28.5627 29.6641 28.6237C29.5283 28.6848 29.3813 28.7164 29.2326 28.7164C29.0839 28.7164 28.9369 28.6848 28.801 28.6237C28.6651 28.5627 28.5435 28.4734 28.4439 28.3618C28.3443 28.2502 28.2691 28.1187 28.223 27.9758C28.1769 27.8329 28.1609 27.6818 28.1763 27.5323V24.5744C28.1795 24.4008 28.1305 24.2302 28.0356 24.0854C27.9408 23.9406 27.8047 23.8284 27.6453 23.7636C27.5122 23.7104 27.3704 23.6833 27.2273 23.6836C27.0806 23.6842 26.9352 23.7113 26.798 23.7636C26.634 23.8307 26.4954 23.9487 26.402 24.1006C26.3087 24.2524 26.2653 24.4303 26.2783 24.6087V34.3503C26.2783 34.635 26.1664 34.908 25.9672 35.1094C25.7681 35.3107 25.498 35.4238 25.2163 35.4238C24.9347 35.4238 24.6646 35.3107 24.4654 35.1094C24.2663 34.908 24.1544 34.635 24.1544 34.3503V29.6222C24.1585 29.4499 24.1111 29.2803 24.0184 29.1357C23.9257 28.991 23.792 28.878 23.6347 28.8114C23.4981 28.7568 23.3523 28.7296 23.2054 28.7314C23.0623 28.7311 22.9204 28.7582 22.7874 28.8114C22.6235 28.8786 22.4848 28.9966 22.3914 29.1484C22.2981 29.3003 22.2547 29.4782 22.2677 29.6565V35.0583C22.2677 37.1711 22.3468 37.2739 23.3974 38.6786L23.7025 39.0897L26.0184 42.1504C26.1655 42.3761 26.223 42.6495 26.1794 42.9161C26.1357 43.1827 25.9943 43.4229 25.7832 43.5887C25.5721 43.7545 25.307 43.8337 25.0406 43.8105C24.7743 43.7874 24.5264 43.6636 24.3464 43.4638L22.0192 40.4031L21.7141 40.0034C20.2116 38.0276 20.0986 37.8906 20.0986 35.0583V29.6565C20.0708 29.029 20.2437 28.4091 20.5917 27.8887C20.9396 27.3683 21.4441 26.975 22.0305 26.7671C22.4196 26.6138 22.8329 26.5326 23.2506 26.5273C23.5726 26.5264 23.8928 26.5765 24.1996 26.6758V24.6087C24.1731 23.9993 24.3381 23.3971 24.671 22.8884C25.0038 22.3796 25.4873 21.9904 26.0523 21.7764C26.4332 21.6074 26.8452 21.5218 27.2612 21.5251C27.6807 21.5222 28.0963 21.6078 28.4813 21.7764C28.6855 21.854 28.8792 21.9576 29.0575 22.0847C29.3445 21.8137 29.6774 21.5971 30.0403 21.4452C30.4303 21.296 30.8435 21.2187 31.2605 21.2168C31.6738 21.2178 32.0835 21.2952 32.4693 21.4452C32.8658 21.5968 33.2245 21.8346 33.5199 22.1419C33.6854 22.0322 33.8637 21.9439 34.0509 21.8792C34.4344 21.7117 34.8477 21.6253 35.2654 21.6253C35.6831 21.6253 36.0964 21.7117 36.4799 21.8792C36.8464 22.0194 37.1802 22.2349 37.4602 22.512C37.7402 22.7892 37.9603 23.122 38.1067 23.4895C38.4663 23.3441 38.8492 23.2666 39.2365 23.2611C39.6548 23.2595 40.0693 23.341 40.4566 23.5009C41.0205 23.7199 41.5025 24.1119 41.8348 24.6219C42.1671 25.1319 42.333 25.7343 42.3094 26.3446V37.4224C42.3206 37.5096 42.3206 37.5978 42.3094 37.685L40.9876 43.0641Z" fill="#8B8785"/>
<path d="M13.1616 31.4838C13.3095 31.4683 13.459 31.4844 13.6004 31.531C13.7417 31.5776 13.8718 31.6537 13.9822 31.7544C14.0926 31.855 14.1809 31.978 14.2413 32.1153C14.3018 32.2527 14.333 32.4013 14.333 32.5516C14.333 32.7019 14.3018 32.8505 14.2413 32.9879C14.1809 33.1252 14.0926 33.2482 13.9822 33.3488C13.8718 33.4495 13.7417 33.5256 13.6004 33.5722C13.459 33.6188 13.3095 33.6349 13.1616 33.6194H3.62661L5.32122 35.3325C5.42062 35.4322 5.49962 35.5507 5.5537 35.6813C5.60778 35.8119 5.63588 35.952 5.63641 36.0936C5.63693 36.2352 5.60987 36.3755 5.55676 36.5065C5.50364 36.6375 5.42553 36.7566 5.32687 36.8571C5.22821 36.9576 5.11094 37.0374 4.98175 37.0921C4.85256 37.1468 4.71399 37.1752 4.57394 37.1757C4.43389 37.1762 4.2951 37.1489 4.16551 37.0952C4.03592 37.0415 3.91806 36.9625 3.81866 36.8628L0.316457 33.3225C0.1291 33.1126 0.0253906 32.84 0.0253906 32.5573C0.0253906 32.2746 0.1291 32.002 0.316457 31.7921L3.81866 28.2518C3.91729 28.152 4.0344 28.0728 4.16331 28.0188C4.29222 27.9648 4.4304 27.937 4.56994 27.937C4.70949 27.937 4.84766 27.9648 4.97657 28.0188C5.10548 28.0728 5.2226 28.152 5.32122 28.2518C5.50858 28.4617 5.61229 28.7343 5.61229 29.017C5.61229 29.2997 5.50858 29.5723 5.32122 29.7821L3.62661 31.4952L13.1616 31.4838Z" fill="#8B8785"/>
<path d="M50.8383 33.6191C50.6904 33.6346 50.541 33.6185 50.3996 33.5719C50.2583 33.5253 50.1282 33.4492 50.0178 33.3485C49.9073 33.2479 49.8191 33.1249 49.7586 32.9876C49.6982 32.8502 49.667 32.7016 49.667 32.5513C49.667 32.401 49.6982 32.2524 49.7586 32.115C49.8191 31.9777 49.9073 31.8547 50.0178 31.7541C50.1282 31.6534 50.2583 31.5773 50.3996 31.5307C50.541 31.4841 50.6904 31.468 50.8383 31.4835H60.3395L58.6675 29.7704C58.4801 29.5606 58.3764 29.2879 58.3764 29.0053C58.3764 28.7226 58.4801 28.4499 58.6675 28.2401C58.7661 28.1403 58.8832 28.0611 59.0121 28.0071C59.141 27.9531 59.2792 27.9253 59.4187 27.9253C59.5583 27.9253 59.6965 27.9531 59.8254 28.0071C59.9543 28.0611 60.0714 28.1403 60.17 28.2401L63.6722 31.7804C63.7741 31.8795 63.8551 31.9983 63.9104 32.1298C63.9657 32.2613 63.9942 32.4027 63.9942 32.5456C63.9942 32.6885 63.9657 32.8299 63.9104 32.9613C63.8551 33.0928 63.7741 33.2117 63.6722 33.3107L60.17 36.8511C59.9693 37.0525 59.6976 37.1651 59.4147 37.164C59.1319 37.1629 58.8611 37.0483 58.6618 36.8454C58.4626 36.6424 58.3512 36.3678 58.3523 36.0819C58.3533 35.7959 58.4667 35.5222 58.6675 35.3207L60.3395 33.6191H50.8383Z" fill="#8B8785"/>
<path d="M31.8698 62.0789C25.5902 62.1763 19.4504 60.2007 14.3819 56.4518C9.31345 52.7028 5.5928 47.385 3.7844 41.3052H1.27637C3.16414 48.0182 7.17997 53.919 12.7069 58.101C18.2339 62.2831 24.9663 64.5152 31.8698 64.4544C38.7734 64.5152 45.5058 62.2831 51.0327 58.101C56.5597 53.919 60.5755 48.0182 62.4633 41.3052H59.9553C58.1469 47.385 54.4262 52.7028 49.3577 56.4518C44.2892 60.2007 38.1495 62.1763 31.8698 62.0789Z" fill="#8B8785"/>
<path d="M31.8702 2.93255C37.9918 2.99314 43.9472 4.95369 48.9302 8.54879C53.9132 12.1439 57.6831 17.1999 59.7296 23.0325H62.2716C58.2045 10.47 46.1275 0.5 31.8702 0.5C17.6128 0.5 5.53583 10.47 1.46875 23.0325H4.01067C6.0572 17.1999 9.82712 12.1439 14.8101 8.54879C19.7931 4.95369 25.7485 2.99314 31.8702 2.93255Z" fill="#8B8785"/>
</g>
<defs>
<clipPath id="clip0_2002_1555">
<rect width="64" height="64" fill="white" transform="translate(0 0.5)"/>
</clipPath>
</defs>
</svg>
